<?xml version="1.0" encoding="UTF-8"?>
<svg id="Layer_2" data-name="Layer 2" xmlns="http://www.w3.org/2000/svg" viewBox="0 0 155.92 196.15">
  <defs>
    <style>
      .cls-1 {
        fill: #020202;
      }
    </style>
  </defs>
  <g id="Layer_1-2" data-name="Layer 1">
    <path class="cls-1" d="M73.31.13c42.52-2.44,79.11,28.81,81.81,71.61,1.3,20.64,1.9,57.44-5.39,76.29-26.02,67.29-125.57,62.9-145.79-6.23C-.9,125.27-.39,88.53.82,70.61,3.44,31.58,34.75,2.35,73.31.13ZM32.01,57.83h11.06c16.64,0,32.08,18.14,29.34,34.76l3.84,9.49c4.93-19.21,4.71-39.78-2.27-58.43-1.07-.12-.43,1.14-.31,1.72,1.37,6.23,3.16,12.4,4.29,18.69-7.73-2-16.75-11.51-17.58-19.57s3.05-15.99,2.27-24.1c13.94,4.3,23.48,18.43,22.11,33.18-.34,3.69-2.62,7.42-2.86,10.22-.26,3.07,1.05,7.97,1.19,11.32.21,5.08-.2,10.09-1.16,15.06,1.13-1.31,4.04-5.24,4.4-6.66.57-2.29.39-5.89.97-8.68,3.26-15.81,17.7-24.44,33.17-24.71.7-.01.73.05,1.16.62-3.08,5.59-3.32,12.5-5.4,18.42-3.96,11.27-14.04,16.74-25.79,15.9l11.34-16.17c.09-.42-.59-.39-.84-.28-2.87,1.28-9.33,10.95-11.02,14-2.43,4.41-7.49,11.81-9.15,15.76-3.62,8.58-4.75,21.15-5.94,30.37,6.58-13.42,12.7-29.65,28.78-33.63,4.01-.99,7.27-.99,11.35-1.15.28-.01,1.62-.57,1.56.46,0,.16-1.72,1.72-2.16,2.37-6.43,9.5-8.2,13.74-19.57,18.44-2.93,1.21-8.64,2.21-10.77,3.41-2.27,1.28-8.25,15.68-7.13,17.41,3.87.57,9.6,4.59,13.25,4.62,2.61.02,8.35-2.12,11.53-2.66,15.12-2.57,29.62-2.64,44.35,2.09.81-.61,2.75-13.1,2.87-15.01,1-15.7,1.13-39.99-.03-55.61-3.86-52.06-65.21-80.08-108.88-53.29C2.92,38.93,4.82,79.45,6.46,118.28c.14,3.27.82,6.62.86,9.92l16.48-2.28c15.68-.5,31.67,1.52,46.23,7.37-.14-3.87.12-7.73.65-11.55,1.41-10.3,3.59-11.38.89-22.6-1.79-7.44-4.57-13-9.49-18.87-.82-.98-6.48-6.84-7.08-7.1-.25-.11-.93-.14-.84.28,6.34,5.84,10.63,13.3,15.3,20.43-.01,1.94-9.6.21-11.14-.2-13.96-3.67-17.3-16.54-21.26-28.67l-5.04-7.16ZM8.18,133.86c3.76,19.09,15.64,34.97,31.49,45.78,15.21-11.41,35.51-10.13,52.45-16.02,7.35-2.56,18.23-7.8,6.26-13.58-7.57-3.66-19.33-7.68-27.5-10.51-20.22-7.03-41.51-11.02-62.7-5.66ZM47.9,184.34c5.26,1.71,10.4,3.79,15.86,4.85,34.8,6.74,66.45-11.42,80.57-43.14-14.01-5.51-30.17-5.24-44.81-1.98-.26,1.48.22.88.81,1.18,8.58,4.4,17.15,8.54,5.7,17.52-16.1,12.64-42.14,8.07-58.14,21.57Z"/>
  </g>
</svg>