<?xml version="1.0" encoding="UTF-8"?>
<svg id="Layer_2" data-name="Layer 2" xmlns="http://www.w3.org/2000/svg" viewBox="0 0 891.61 184.53">
  <defs>
    <style>
      .cls-1 {
        fill: #020202;
      }
    </style>
  </defs>
  <g id="Layer_1-2" data-name="Layer 1">
    <g>
      <g>
        <g>
          <path class="cls-1" d="M750.59,96l.54,6.99c-10.08,7.84-25.34,7.7-30.03-5.97-8.47,15.46-38.02,16-39.53-4.54-1.44-19.57,25.78-23.37,39.93-26.58,1.43-8.77-1.01-24.56-12.95-23.45-13.44,1.25-6.13,14.92-14.47,16.52-9.76,1.87-13.32-3.86-7.91-11.9,7.67-11.4,32.19-16.49,43.37-8.5,13.97,9.99,7.65,36.07,9.03,50.97.77,8.32,4.44,11.27,12.03,6.46ZM721.6,71c-8.47,2.31-23.58,6.36-23.06,17.49.69,14.89,23.06,10.47,23.06,1.01v-18.5Z"/>
          <path class="cls-1" d="M778.6,17v20h21l.06,6.38c-.12.43-3.29,1.62-3.56,1.62h-17.5v46.5c0,6.35,9.47,7.4,14.29,6.29,3.92-.91,5.2-6.77,8.64-1.15-4.81,12.72-30.2,15.93-37.39,5.32-.5-.74-2.54-5.06-2.54-5.46v-51.5h-10.01s.14-7.86.14-7.86c10.31-2.15,16.55-10.55,20.02-19.97l6.84-.16Z"/>
          <path class="cls-1" d="M834.6,0v47c1.73-.86,2.17-2.97,3.98-4.52,13.98-12,40.77-12.31,43.01,10.03,1.02,10.18-2.28,38.34,1.59,45.41,1.88,3.44,4.87,3.34,8.43,3.08v6.01h-35.51l-1.41-1.61.33-3.47c1.45-1.98,8.38.77,9.51-6.48s.83-29.23.05-36.93c-.52-5.19-2.33-11.57-7.96-13.04-7.18-1.88-20.59.41-21.97,9.08-.85,5.36-.93,35.88.16,40.73,1,4.47,5.59,6.25,9.78,5.72v6s-37,0-37,0v-6c4.83.54,9.15-1.55,9.94-6.56-1.54-23.81,2.24-50.54.11-73.99-.66-7.2-4.31-8.35-10.94-9.55l-.09-4.89,27.99-6.01Z"/>
        </g>
        <path class="cls-1" d="M625.6,67v25.5c0,6.51,12.85,8.99,18,8.5v6h-46l.04-5.96c5.73-.37,9.42-1.36,10.02-7.48,2.27-23.27-1.77-50.32-.12-74-.82-5.29-5.2-6.49-9.9-6.6l-.05-5.96c10.84-.04,21.7.05,32.55.05,2.87,0,5.68-1.14,8.98-1.12,18.19.1,36.74,7.28,38.36,27.7,2.18,27.52-29.59,37.48-51.88,33.38ZM625.6,61h14.5c1.7,0,9.97-4.93,11.49-6.51,8.82-9.15,8.71-29.26-2.06-36.93-1.17-.84-8.65-4.57-9.43-4.57h-14.5v48Z"/>
      </g>
      <path class="cls-1" d="M28.25,68.17v25.5c0,6.93,12.06,7.85,17.07,7.93l.93,5.57H2.75c-.22,0-1.66,1.87-2.38-.62-1.94-6.73,4.22-3.71,7.85-6.92,1.46-1.29,1.96-3.07,2.05-4.95-1.66-23.54,2.14-49.88.03-73.06-.63-6.94-3.38-7.36-10.04-7.46v-6.99s51.49,0,51.49,0c10.1,0,23.59,9.37,26.8,19.2,10.44,31.92-24.41,46.04-50.3,41.8ZM28.25,62.17c10.86.67,21.18-.03,28-9.5,6.6-9.17,5.8-27.28-3.5-34.49-1.15-.89-7.1-4-8-4h-16.5v48Z"/>
    </g>
    <g>
      <path class="cls-1" d="M226,130.42l12.82.16,14.91,35.26c1.88,0,12.05-31.34,15.33-34.26,2.73-2.43,8.77-.68,12.41-1.16v53.11h-9.44v-35.41l-12.86,28.78-10.62.59c-3.22-8.47-6.5-17.42-10.42-25.57-.68-1.41-.63-3.5-2.69-3.8v35.41h-9.44v-53.11Z"/>
      <path class="cls-1" d="M606.06,173.51c-.76,2.67-10.02,8.45-13,9.43-30.79,10.14-49.69-30.79-24.7-48.31,11.06-7.75,30.92-5.65,36.51,7.58l-6.48,4.72c-13.72-17.64-36.24-4.46-30.72,16.58,3.73,14.23,30.43,17.69,28.96-.04h-14.18s0-8.26,0-8.26h23.61v18.29Z"/>
      <path class="cls-1" d="M520.91,130.59l20.22,52.95-10.46-.15-3.84-11.5-22.75-.22-4.42,11.72-10.46.15,20.18-51.22c2.39-3.29,7.84-1.74,11.52-1.73ZM506.91,163.47h16.52c-2.82-5.57-4.48-11.67-6.79-17.47-.58-1.46.56-3.13-2.05-2.61l-7.68,20.07Z"/>
      <path class="cls-1" d="M355.83,183.53l-10.43-.19-3.85-11.49-23.62.58-3.57,10.94-10.45.16c3.02-6.77,17.98-50.58,21.23-52.53,2.13-1.28,9.1-1.39,10.52,1.31l20.18,51.22ZM321.6,163.47h16.52l-8.84-20.07-7.68,20.07Z"/>
      <path class="cls-1" d="M393.19,129.69c3.76-.11,18.69,3.61,17.96,8.19l-5.16,6.69c-4.89-5.6-14.58-8.8-20.12-2.32-4.78,9.96,22.86,9.16,26.05,21.2,6.43,24.23-28.72,27.08-39.55,10.07l6.47-6.47c3.63,6.38,19.7,12.74,23.62,4.71,4.72-9.68-13.84-11.39-19.38-14.87-14.64-9.19-6.11-26.71,10.11-27.19Z"/>
      <path class="cls-1" d="M665.07,139.87h-23.61v12.98h18.89v8.26h-18.89l1.11,13.65c1.53,1.07,14.11.6,17.26.59,2.84-.01,6.02-2.58,5.95,1.22-.04,2.1-1.69,4.18.47,6.97h-34.23v-53.11h32.46l1.48,1.72-.89,7.73Z"/>
      <path class="cls-1" d="M452.21,129.69c3.76-.11,18.69,3.61,17.96,8.19l-5.16,6.69c-3.66-7.67-24.74-7.89-19.8,2.08,3.78,7.61,25.48,4.64,26.37,20.93,1.18,21.47-30.75,20.95-40.19,5.93l6.47-6.47c3.96,8.22,25.99,12.85,24.24.64-1.02-7.09-24.29-7.75-26.93-19.2-2.57-11.17,6.68-18.48,17.04-18.79Z"/>
    </g>
    <g>
      <path class="cls-1" d="M453.25,35.17v50.5c0,.59,1.66,6,2.12,6.88,5,9.59,26.36,8.61,27.88-4.88,1.3-11.5-.93-25.21-.03-36.97-1.2-4.42-4.92-5.01-8.98-4.52v-6.01c7.04,1.36,18.85-4.94,24.73-4.83,1.24.02,1.55.41,2.28,1.33v61c0,2.18,7.81,4.46,10.01,3.5l-.94,5.56-26.55,3.45-.52-12.01c-11.57,16.81-44.56,17.5-46.98-6.51-1.33-13.27,1.13-28.33-.21-41.79-1.93-3.76-6.06-3.97-9.81-3.69v-6.01s27.01-4.99,27.01-4.99Z"/>
      <path class="cls-1" d="M225.24,98.16c4.37,10.05-11.36,12.04-18.43,10.94-5.61-.88-10.29-6.26-10.57-11.93-2.01,1.49-2.54,3.8-4.66,5.82-10.74,10.26-33.49,8.97-35.22-8.45-2.06-20.73,24.58-25.09,39.88-27.39.41-9.36-.36-25.16-13.37-23.94-11.87,1.11-6.14,12.41-12.24,15.83-8.38,4.7-15.19-2.31-9.84-10.84,6.41-10.22,26.46-15.11,37.45-11.54,21.39,6.95,13.41,37.18,14.97,54.03.77,8.27,4.18,11.02,12.03,7.46ZM196.25,72.17c-10.43,2.26-26.82,6.7-22.33,20.84,2.28,7.19,13.82,8.07,18.85,3.18,1.23-1.2,3.48-6.2,3.48-7.52v-16.5Z"/>
      <path class="cls-1" d="M402.25,38.17h20v6.99s-20,1.01-20,1.01v48.5c0,5.38,7.62,7.36,11.9,7.6l.1,4.9h-36.5c-.22,0-1.68,1.86-2.38-.62-.37-1.32-.15-2.96-.08-4.34,2.74.01,9.96-1.09,9.96-4.54v-52.5h-11s.14-6.86.14-6.86l10.87-1.14c-3.36-20.45,18.2-40.18,38.26-36.76,8.93,1.52,14.13,10.91,5.25,16.52-6.5-3.42-10.72-8.97-18.94-7.71-4.12.63-7.57,5.76-7.57,9.45v19.5Z"/>
      <path class="cls-1" d="M289.25,59.17l-10.02-1.48c-2.5-8.73-2.66-15.25-13.59-15.42-22.21-.35-25.32,40.45-9.33,52.33,9.42,7,26.58,4.47,33.43-5.41l3.46,3.48c-22.1,32.67-66.65,18.54-65-22.05,1.27-31.15,36.97-45.5,61.04-27.95v16.5Z"/>
      <path class="cls-1" d="M544.25,1.17v94.5c0,4.95,6.93,6.64,10.95,6.54l.05,4.96h-38l.43-5.07,7.9-1.85,1.57-3.64c-1.52-24.44,2.34-51.92.14-75.99-.94-10.32-6.44-5.47-10.09-7.91-2.44-1.63-1.09-4.46,1.55-5.55,6.52-2.69,18.33-3.03,25.5-6Z"/>
      <path class="cls-1" d="M146.26,67.17l-47,1c1.18,8.61,1.24,18.05,7.96,24.53,7.11,6.85,21.2,7.55,29.37,2.3,2.7-1.73,6.46-8.45,9.24-3.86s-15.14,16.21-19.61,17.5c-32.13,9.23-52.44-22.65-41.15-51.15,12.71-32.1,64.93-29.34,61.19,9.69ZM100.25,61.17h27c2.77-26.98-25.37-23.51-27,0Z"/>
      <path class="cls-1" d="M365.26,67.17l-46,1c-3.68,26.97,24.71,41.41,43.48,21.21l3.51,1.8c-20.25,34.65-68.05,19.41-64.98-21.51s66.62-48.38,63.98-2.51ZM319.25,61.17h26.5c4.41-6.86-1.23-18.68-10.02-19.06-10.51-.46-15.2,10.32-16.48,19.06Z"/>
    </g>
  </g>
</svg>